<?xml version="1.0" encoding="UTF-8" standalone="no"?>
<svg
   class="mud-icon-root mud-svg-icon mud-error-text mud-icon-size-medium"
   focusable="false"
   viewBox="0 0 24 24"
   aria-hidden="true"
   role="img"
   style="fill: rgb(40, 167, 69);"
   version="1.1"
   id="svg1"
   sodipodi:docname="Csproj.svg"
   inkscape:version="1.4.2 (f4327f4, 2025-05-13)"
   xmlns:inkscape="http://www.inkscape.org/namespaces/inkscape"
   xmlns:sodipodi="http://sodipodi.sourceforge.net/DTD/sodipodi-0.dtd"
   xmlns="http://www.w3.org/2000/svg"
   xmlns:svg="http://www.w3.org/2000/svg">
  <defs
     id="defs1">
    <inkscape:path-effect
       effect="fillet_chamfer"
       id="path-effect3"
       is_visible="true"
       lpeversion="1"
       nodesatellites_param="F,0,0,1,0,1.4784022,0,1 @ F,0,1,1,0,1.4784022,0,1 @ F,0,1,1,0,1.4784022,0,1 @ F,0,1,1,0,1.4784022,0,1"
       radius="0"
       unit="px"
       method="auto"
       mode="F"
       chamfer_steps="1"
       flexible="false"
       use_knot_distance="true"
       apply_no_radius="true"
       apply_with_radius="true"
       only_selected="false"
       hide_knots="false" />
  </defs>
  <sodipodi:namedview
     id="namedview1"
     pagecolor="#505050"
     bordercolor="#eeeeee"
     borderopacity="1"
     inkscape:showpageshadow="0"
     inkscape:pageopacity="0"
     inkscape:pagecheckerboard="0"
     inkscape:deskcolor="#505050"
     inkscape:zoom="34.383067"
     inkscape:cx="7.998123"
     inkscape:cy="13.74223"
     inkscape:window-width="2560"
     inkscape:window-height="1369"
     inkscape:window-x="-8"
     inkscape:window-y="-8"
     inkscape:window-maximized="1"
     inkscape:current-layer="svg1" />
  <path
     id="rect1"
     style="display:inline;fill:#253727;fill-opacity:1;stroke:#28a745;stroke-width:1.0082;stroke-dasharray:none;stroke-opacity:1"
     d="m 2.917991,4.1131101 h 18.225716 a 1.4784022,1.4784022 45 0 1 1.478402,1.4784022 V 18.758102 a 1.4784022,1.4784022 135 0 1 -1.478402,1.478402 H 2.917991 A 1.4784022,1.4784022 45 0 1 1.4395888,18.758102 V 5.5915123 A 1.4784022,1.4784022 135 0 1 2.917991,4.1131101 Z"
     sodipodi:nodetypes="ccccc"
     inkscape:path-effect="#path-effect3"
     inkscape:original-d="M 1.4395888,4.1131101 H 22.622109 V 20.236504 H 1.4395888 Z"
     transform="matrix(0.99138345,0,0,0.9923469,0.07281551,-0.08163203)" />
  <text
     x="11.972888"
     y="13.341306"
     text-anchor="middle"
     dominant-baseline="middle"
     font-family="'Segoe UI', Roboto, Helvetica, Arial, sans-serif"
     font-size="16px"
     font-weight="700"
     id="text1"
     style="display:none">C#</text>
  <path
     d="m 11.659692,16.090141 q -0.94945,0.459606 -2.4794549,0.459606 -1.9956588,0 -3.1386271,-1.173205 -1.1429683,-1.173206 -1.1429683,-3.126532 0,-2.080324 1.2820597,-3.3744782 1.2881071,-1.2941545 3.338193,-1.2941545 1.2699656,0 2.1407976,0.3205149 V 9.7826495 Q 10.78886,9.2625687 9.6761281,9.2625687 q -1.2215851,0 -1.971469,0.7680263 -0.749884,0.768027 -0.749884,2.080323 0,1.25787 0.7075518,2.007754 0.7075518,0.743837 1.9049471,0.743837 1.142968,0 2.092418,-0.556366 z m 7.631884,-6.1563049 -0.235851,1.0885409 h -1.118778 l -0.33261,1.499768 h 1.251822 l -0.272135,1.088541 h -1.203443 l -0.471701,2.092418 h -1.20949 l 0.441463,-2.092418 h -1.384866 l -0.447511,2.092418 h -1.20949 l 0.429368,-2.092418 h -1.124825 l 0.223756,-1.088541 h 1.13692 l 0.320515,-1.499768 h -1.221585 l 0.205613,-1.0885409 h 1.239728 l 0.447511,-2.1528929 h 1.239728 l -0.447512,2.1528929 h 1.384867 l 0.459606,-2.1528929 h 1.227632 l -0.447511,2.1528929 z m -2.576214,1.0885409 h -1.403009 l -0.33261,1.499768 h 1.396961 z"
     id="text2"
     style="font-weight:700;font-size:16px;font-family:'Segoe UI', Roboto, Helvetica, Arial, sans-serif;dominant-baseline:middle;text-anchor:middle;display:inline;stroke-width:0.774074"
     aria-label="C#" />
</svg>
